HIERARCHY
ROOT Hips
{
	OFFSET 0.0000 0.0000 0.0000
	CHANNELS 6 Xposition Yposition Zposition Zrotation Xrotation Yrotation
	JOINT Spine1
	{
		OFFSET -0.0137 5.0038 -0.0537
		CHANNELS 3 Zrotation Xrotation Yrotation
		JOINT Spine2
		{
			OFFSET -0.0000 7.1253 -0.0298
			CHANNELS 3 Zrotation Xrotation Yrotation
			JOINT Chest
			{
				OFFSET -0.0000 7.5501 -0.8160
				CHANNELS 3 Zrotation Xrotation Yrotation
				JOINT Neck1
				{
					OFFSET -0.1817 26.3113 -0.5533
					CHANNELS 3 Zrotation Xrotation Yrotation
					JOINT Neck2
					{
						OFFSET -0.0000 7.7094 2.3026
						CHANNELS 3 Zrotation Xrotation Yrotation
						JOINT Head
						{
							OFFSET -0.0000 6.1289 1.9537
							CHANNELS 3 Zrotation Xrotation Yrotation
							JOINT Jaw
							{
								OFFSET 0.0026 0.4756 3.0949
								CHANNELS 3 Zrotation Xrotation Yrotation
								End Site
								{
									OFFSET 0.0 1.0 0.0
								}
							}
							JOINT LeftEye
							{
								OFFSET 3.2064 5.3802 7.5869
								CHANNELS 3 Zrotation Xrotation Yrotation
								End Site
								{
									OFFSET 0.0 1.0 0.0
								}
							}
							JOINT RightEye
							{
								OFFSET -3.2224 5.3619 7.5582
								CHANNELS 3 Zrotation Xrotation Yrotation
								End Site
								{
									OFFSET 0.0 1.0 0.0
								}
							}
						}
					}
				}
				JOINT LeftShoulder
				{
					OFFSET 1.6217 23.2372 5.1134
					CHANNELS 3 Zrotation Xrotation Yrotation
					JOINT LeftArm
					{
						OFFSET 14.9198 0.0000 -5.5023
						CHANNELS 3 Zrotation Xrotation Yrotation
						JOINT LeftForeArm
						{
							OFFSET 28.7393 0.0000 -0.0026
							CHANNELS 3 Zrotation Xrotation Yrotation
							JOINT LeftHand
							{
								OFFSET 27.0940 -0.0000 0.0026
								CHANNELS 3 Zrotation Xrotation Yrotation
								JOINT LeftHandThumbEnd
								{
									OFFSET 12.2686 -3.2202 4.8331
									CHANNELS 3 Zrotation Xrotation Yrotation
									End Site
									{
										OFFSET 0.0 1.0 0.0
									}
								}
								JOINT LeftHandMiddleEnd
								{
									OFFSET 19.0120 -0.3129 -0.0340
									CHANNELS 3 Zrotation Xrotation Yrotation
									End Site
									{
										OFFSET 0.0 1.0 0.0
									}
								}
							}
						}
					}
				}
				JOINT RightShoulder
				{
					OFFSET -1.3801 23.1803 5.2142
					CHANNELS 3 Zrotation Xrotation Yrotation
					JOINT RightArm
					{
						OFFSET -15.0372 0.0000 -5.5456
						CHANNELS 3 Zrotation Xrotation Yrotation
						JOINT RightForeArm
						{
							OFFSET -28.7366 0.0000 -0.0026
							CHANNELS 3 Zrotation Xrotation Yrotation
							JOINT RightHand
							{
								OFFSET -27.1336 -0.0000 0.0026
								CHANNELS 3 Zrotation Xrotation Yrotation
								JOINT RightHandThumbEnd
								{
									OFFSET -12.2642 -3.2115 4.8040
									CHANNELS 3 Zrotation Xrotation Yrotation
									End Site
									{
										OFFSET 0.0 1.0 0.0
									}
								}
								JOINT RightHandMiddleEnd
								{
									OFFSET -19.0006 -0.3066 -0.0316
									CHANNELS 3 Zrotation Xrotation Yrotation
									End Site
									{
										OFFSET 0.0 1.0 0.0
									}
								}
							}
						}
					}
				}
			}
		}
	}
	JOINT LeftLeg
	{
		OFFSET 10.0432 -8.4345 2.5957
		CHANNELS 3 Zrotation Xrotation Yrotation
		JOINT LeftShin
		{
			OFFSET -0.0000 -43.2218 -0.8029
			CHANNELS 3 Zrotation Xrotation Yrotation
			JOINT LeftFoot
			{
				OFFSET 0.0000 -42.1551 -3.4815
				CHANNELS 3 Zrotation Xrotation Yrotation
				JOINT LeftToeBase
				{
					OFFSET 0.0000 -5.0595 13.2315
					CHANNELS 3 Zrotation Xrotation Yrotation
					End Site
					{
						OFFSET 0.0 1.0 0.0
					}
				}
			}
		}
	}
	JOINT RightLeg
	{
		OFFSET -10.0473 -8.2953 2.6203
		CHANNELS 3 Zrotation Xrotation Yrotation
		JOINT RightShin
		{
			OFFSET 0.0000 -43.3622 -0.8056
			CHANNELS 3 Zrotation Xrotation Yrotation
			JOINT RightFoot
			{
				OFFSET 0.0000 -42.1174 -3.4784
				CHANNELS 3 Zrotation Xrotation Yrotation
				JOINT RightToeBase
				{
					OFFSET -0.0000 -5.0796 13.2842
					CHANNELS 3 Zrotation Xrotation Yrotation
					End Site
					{
						OFFSET 0.0 1.0 0.0
					}
				}
			}
		}
	}
}
MOTION
Frames: 5
Frame Time: 0.033333
-0.0022 99.4549 -0.7296 -0.1363 1.3468 -0.1877 -0.0211 -3.5460 -0.1133 -0.4992 -6.0064 0.0263 -1.0661 13.9280 -2.3574 1.8786 10.2256 2.4180 -0.8312 -3.6092 -0.1058 -1.0973 -1.6965 -0.5794 0.0088 -0.0253 0.0100 0.7729 -10.4895 -3.8162 -0.7548 -10.4982 3.8351 -25.8001 12.4887 -13.2114 -53.3423 -14.5047 8.2500 0.6307 -0.5677 -32.7780 174.8207 -62.4430 176.1929 -14.3073 10.1899 13.2742 -60.8502 1.3237 1.7859 29.1239 9.6506 15.8592 40.3596 18.6890 20.9533 -0.8613 0.4914 39.3892 -13.6054 23.3786 -2.1119 16.3821 7.3905 -16.6417 50.4886 -3.5003 -5.6972 9.1507 -4.4803 8.0897 0.0218 1.7089 0.0344 -10.8326 3.7854 5.5224 1.6697 -0.6035 -2.1415 -8.6199 -4.5367 -5.9544 0.0356 1.6596 0.0016 10.0410 0.1326 -6.3695 -1.4136 -1.5225 1.0112
-0.0036 99.4494 -0.7495 -0.1394 1.3578 -0.2172 -0.0147 -3.5355 -0.1306 -0.4929 -6.0050 0.0213 -1.0565 13.8836 -2.3518 1.8429 10.2265 2.4041 -0.8170 -3.6207 -0.0908 -1.1527 -1.5598 -0.5371 0.0090 -0.0306 0.0104 0.7712 -10.5041 -3.8170 -0.7525 -10.5142 3.8360 -25.7864 12.5303 -13.2127 -53.3518 -14.2673 8.0607 0.7462 -0.5553 -32.8141 174.7750 -62.2114 176.1495 -14.2962 10.2073 13.2553 -60.8584 1.3268 1.7603 29.0833 9.6309 15.8666 40.4317 18.6822 20.9590 -0.8596 0.4833 39.3721 -13.5720 23.4113 -2.0738 16.3821 7.3926 -16.6264 50.4837 -3.4825 -5.6989 9.1553 -4.5006 8.1613 0.0167 1.7189 0.0214 -10.8202 3.7882 5.5284 1.6690 -0.5996 -2.1220 -8.6192 -4.5588 -5.9038 0.0393 1.6649 -0.0063 10.0520 0.1358 -6.3757 -1.4142 -1.5295 1.0181
0.0031 99.4450 -0.7398 -0.1438 1.3708 -0.2409 -0.0049 -3.5196 -0.1524 -0.4885 -5.9964 0.0133 -1.0380 13.8421 -2.3457 1.8359 10.2131 2.3749 -0.7894 -3.6284 -0.0738 -1.2340 -1.4493 -0.4665 0.0095 -0.0317 0.0076 0.7708 -10.5030 -3.8198 -0.7509 -10.5160 3.8323 -25.7955 12.5435 -13.2158 -53.3805 -14.0903 8.0027 0.7999 -0.5471 -32.8374 174.6864 -62.1936 176.1549 -14.3023 10.2110 13.2468 -60.8777 1.3318 1.7657 29.0518 9.6117 15.8904 40.5107 18.6968 20.9660 -0.9056 0.4783 39.3371 -13.5524 23.4541 -2.0136 16.3985 7.3959 -16.6171 50.4732 -3.4843 -5.6884 9.1646 -4.5288 8.2452 0.0126 1.7143 0.0180 -10.8182 3.8020 5.4956 1.6711 -0.5881 -2.1021 -8.6092 -4.5848 -5.8860 0.0407 1.6776 -0.0006 10.0389 0.1357 -6.3874 -1.4168 -1.5126 1.0182
-0.0283 99.4562 -0.7694 -0.1534 1.3857 -0.2711 0.0092 -3.4948 -0.1514 -0.4937 -6.0046 -0.0154 -1.0167 13.8231 -2.3487 1.8477 10.2102 2.3503 -0.7464 -3.6312 -0.0567 -1.3300 -1.4003 -0.4054 0.0111 -0.0275 0.0047 0.7715 -10.5087 -3.8244 -0.7481 -10.5252 3.8303 -25.7914 12.5393 -13.2059 -53.4193 -13.9681 8.0613 0.7699 -0.5613 -32.8990 174.5218 -62.3491 176.3148 -14.3224 10.2162 13.2367 -60.8575 1.3460 1.7947 29.0615 9.5844 15.9574 40.5330 18.7388 20.9554 -0.9295 0.4631 39.3111 -13.5716 23.4425 -1.9565 16.4191 7.3936 -16.6072 50.4693 -3.4924 -5.6870 9.1737 -4.5723 8.3167 0.0149 1.7288 0.0167 -10.8276 3.8046 5.4762 1.6720 -0.5717 -2.0943 -8.5783 -4.6278 -5.8750 0.0341 1.6985 -0.0070 9.9878 0.1403 -6.3706 -1.4202 -1.5075 1.0166
-0.0378 99.4672 -0.7741 -0.1601 1.4134 -0.2864 0.0138 -3.4796 -0.1556 -0.4992 -6.0074 -0.0193 -0.9906 13.8176 -2.3668 1.8743 10.2006 2.3355 -0.7222 -3.6191 -0.0430 -1.3975 -1.4312 -0.3918 0.0136 -0.0227 -0.0024 0.7713 -10.5012 -3.8313 -0.7430 -10.5202 3.8221 -25.7866 12.5427 -13.1961 -53.4617 -13.9037 8.1144 0.7200 -0.5673 -32.9329 174.1548 -62.4938 176.6617 -14.3338 10.2220 13.2128 -60.7866 1.3677 1.7989 29.1015 9.5578 16.0112 40.5247 18.7785 20.9624 -0.9495 0.4711 39.2376 -13.5640 23.3720 -1.8811 16.4251 7.3810 -16.5931 50.4421 -3.5063 -5.6897 9.1837 -4.6194 8.3599 0.0141 1.7283 0.0188 -10.8385 3.8351 5.4210 1.6731 -0.6008 -2.0913 -8.5536 -4.6710 -5.8739 0.0300 1.7042 0.0013 9.9240 0.1599 -6.3761 -1.4229 -1.5080 1.0139
